<mxfile host="app.diagrams.net" modified="2020-03-21T22:19:57.201Z" agent="Mozilla/5.0 (Macintosh; Intel Mac OS X 10_14_6) AppleWebKit/537.36 (KHTML, like Gecko) Chrome/80.0.3987.149 Safari/537.36" etag="4fwtHVqgCvv_CkOLGZu4" version="12.8.8" type="github">
  <diagram name="Page-1" id="74e2e168-ea6b-b213-b513-2b3c1d86103e">
    <mxGraphModel dx="2992" dy="2078" grid="1" gridSize="10" guides="1" tooltips="1" connect="1" arrows="1" fold="1" page="1" pageScale="1" pageWidth="1100" pageHeight="850" background="#ffffff" math="0" shadow="0">
      <root>
        <mxCell id="0" />
        <mxCell id="1" parent="0" />
        <mxCell id="EwlcQp5Az3rUC2PLK72F-8" value="" style="edgeStyle=orthogonalEdgeStyle;rounded=0;orthogonalLoop=1;jettySize=auto;html=1;" parent="1" source="EwlcQp5Az3rUC2PLK72F-6" target="EwlcQp5Az3rUC2PLK72F-7" edge="1">
          <mxGeometry relative="1" as="geometry" />
        </mxCell>
        <mxCell id="EwlcQp5Az3rUC2PLK72F-6" value="Conditions of&amp;nbsp; Use/Disclaimer (Only on first use)" style="rounded=1;whiteSpace=wrap;html=1;fillColor=#fff2cc;strokeColor=#d6b656;" parent="1" vertex="1">
          <mxGeometry x="350" y="50" width="120" height="60" as="geometry" />
        </mxCell>
        <mxCell id="EwlcQp5Az3rUC2PLK72F-10" value="" style="edgeStyle=orthogonalEdgeStyle;rounded=0;orthogonalLoop=1;jettySize=auto;html=1;" parent="1" source="EwlcQp5Az3rUC2PLK72F-7" target="EwlcQp5Az3rUC2PLK72F-9" edge="1">
          <mxGeometry relative="1" as="geometry" />
        </mxCell>
        <mxCell id="EwlcQp5Az3rUC2PLK72F-12" value="" style="edgeStyle=orthogonalEdgeStyle;rounded=0;orthogonalLoop=1;jettySize=auto;html=1;" parent="1" source="EwlcQp5Az3rUC2PLK72F-7" target="EwlcQp5Az3rUC2PLK72F-11" edge="1">
          <mxGeometry relative="1" as="geometry" />
        </mxCell>
        <mxCell id="EwlcQp5Az3rUC2PLK72F-14" value="" style="edgeStyle=orthogonalEdgeStyle;rounded=0;orthogonalLoop=1;jettySize=auto;html=1;" parent="1" source="EwlcQp5Az3rUC2PLK72F-7" target="EwlcQp5Az3rUC2PLK72F-13" edge="1">
          <mxGeometry relative="1" as="geometry" />
        </mxCell>
        <mxCell id="EwlcQp5Az3rUC2PLK72F-7" value="Home Screen" style="rounded=1;whiteSpace=wrap;html=1;" parent="1" vertex="1">
          <mxGeometry x="350" y="190" width="120" height="60" as="geometry" />
        </mxCell>
        <mxCell id="EwlcQp5Az3rUC2PLK72F-43" value="" style="edgeStyle=orthogonalEdgeStyle;rounded=0;orthogonalLoop=1;jettySize=auto;html=1;" parent="1" source="EwlcQp5Az3rUC2PLK72F-13" target="EwlcQp5Az3rUC2PLK72F-42" edge="1">
          <mxGeometry relative="1" as="geometry">
            <Array as="points">
              <mxPoint x="720" y="490" />
              <mxPoint x="720" y="490" />
            </Array>
          </mxGeometry>
        </mxCell>
        <mxCell id="EwlcQp5Az3rUC2PLK72F-45" value="" style="edgeStyle=orthogonalEdgeStyle;rounded=0;orthogonalLoop=1;jettySize=auto;html=1;" parent="1" source="EwlcQp5Az3rUC2PLK72F-13" target="EwlcQp5Az3rUC2PLK72F-44" edge="1">
          <mxGeometry relative="1" as="geometry" />
        </mxCell>
        <mxCell id="EwlcQp5Az3rUC2PLK72F-47" value="" style="edgeStyle=orthogonalEdgeStyle;rounded=0;orthogonalLoop=1;jettySize=auto;html=1;" parent="1" source="EwlcQp5Az3rUC2PLK72F-13" target="EwlcQp5Az3rUC2PLK72F-46" edge="1">
          <mxGeometry relative="1" as="geometry" />
        </mxCell>
        <mxCell id="EwlcQp5Az3rUC2PLK72F-13" value="&lt;b&gt;ICU for the non-intesivist&lt;/b&gt;" style="rounded=1;whiteSpace=wrap;html=1;" parent="1" vertex="1">
          <mxGeometry x="650" y="340" width="120" height="60" as="geometry" />
        </mxCell>
        <mxCell id="EwlcQp5Az3rUC2PLK72F-46" value="Junior Medical Staff Education" style="rounded=1;whiteSpace=wrap;html=1;fillColor=#fff2cc;strokeColor=#d6b656;" parent="1" vertex="1">
          <mxGeometry x="970" y="555" width="120" height="60" as="geometry" />
        </mxCell>
        <mxCell id="EwlcQp5Az3rUC2PLK72F-44" value="General Care" style="rounded=1;whiteSpace=wrap;html=1;" parent="1" vertex="1">
          <mxGeometry x="820" y="560" width="120" height="50" as="geometry" />
        </mxCell>
        <mxCell id="EwlcQp5Az3rUC2PLK72F-42" value="Ventilation" style="rounded=1;whiteSpace=wrap;html=1;" parent="1" vertex="1">
          <mxGeometry x="690" y="550" width="120" height="60" as="geometry" />
        </mxCell>
        <mxCell id="EwlcQp5Az3rUC2PLK72F-37" value="" style="edgeStyle=orthogonalEdgeStyle;rounded=0;orthogonalLoop=1;jettySize=auto;html=1;" parent="1" source="EwlcQp5Az3rUC2PLK72F-11" target="EwlcQp5Az3rUC2PLK72F-36" edge="1">
          <mxGeometry relative="1" as="geometry" />
        </mxCell>
        <mxCell id="EwlcQp5Az3rUC2PLK72F-39" value="" style="edgeStyle=orthogonalEdgeStyle;rounded=0;orthogonalLoop=1;jettySize=auto;html=1;" parent="1" source="EwlcQp5Az3rUC2PLK72F-11" target="EwlcQp5Az3rUC2PLK72F-38" edge="1">
          <mxGeometry relative="1" as="geometry" />
        </mxCell>
        <mxCell id="EwlcQp5Az3rUC2PLK72F-41" value="" style="edgeStyle=orthogonalEdgeStyle;rounded=0;orthogonalLoop=1;jettySize=auto;html=1;" parent="1" source="EwlcQp5Az3rUC2PLK72F-11" target="EwlcQp5Az3rUC2PLK72F-40" edge="1">
          <mxGeometry relative="1" as="geometry" />
        </mxCell>
        <mxCell id="EwlcQp5Az3rUC2PLK72F-11" value="&lt;b&gt;Intubation&lt;/b&gt;" style="rounded=1;whiteSpace=wrap;html=1;" parent="1" vertex="1">
          <mxGeometry x="350" y="330" width="120" height="60" as="geometry" />
        </mxCell>
        <mxCell id="EwlcQp5Az3rUC2PLK72F-40" value="Emergency Intubation Checklists&lt;br&gt;(Checklist boxes with carousel)" style="rounded=1;whiteSpace=wrap;html=1;fillColor=#f8cecc;strokeColor=#b85450;" parent="1" vertex="1">
          <mxGeometry x="510" y="550" width="120" height="60" as="geometry" />
        </mxCell>
        <mxCell id="EwlcQp5Az3rUC2PLK72F-38" value="Intubation Step-by Step guidance&lt;br&gt;(Carousel)" style="rounded=1;whiteSpace=wrap;html=1;fillColor=#f8cecc;strokeColor=#b85450;" parent="1" vertex="1">
          <mxGeometry x="350" y="550" width="120" height="60" as="geometry" />
        </mxCell>
        <mxCell id="EwlcQp5Az3rUC2PLK72F-36" value="Infographic&lt;br&gt;(SAS COVID 19 infographics)" style="rounded=1;whiteSpace=wrap;html=1;" parent="1" vertex="1">
          <mxGeometry x="170" y="550" width="120" height="60" as="geometry" />
        </mxCell>
        <mxCell id="EwlcQp5Az3rUC2PLK72F-33" value="" style="edgeStyle=orthogonalEdgeStyle;rounded=0;orthogonalLoop=1;jettySize=auto;html=1;" parent="1" source="EwlcQp5Az3rUC2PLK72F-9" target="EwlcQp5Az3rUC2PLK72F-32" edge="1">
          <mxGeometry relative="1" as="geometry">
            <Array as="points">
              <mxPoint x="70" y="500" />
              <mxPoint x="-60" y="500" />
            </Array>
          </mxGeometry>
        </mxCell>
        <mxCell id="EwlcQp5Az3rUC2PLK72F-35" value="" style="edgeStyle=orthogonalEdgeStyle;rounded=0;orthogonalLoop=1;jettySize=auto;html=1;" parent="1" source="EwlcQp5Az3rUC2PLK72F-9" target="EwlcQp5Az3rUC2PLK72F-34" edge="1">
          <mxGeometry relative="1" as="geometry" />
        </mxCell>
        <mxCell id="yP21m4AB17N5dop4f1np-2" value="" style="edgeStyle=orthogonalEdgeStyle;rounded=0;orthogonalLoop=1;jettySize=auto;html=1;" edge="1" parent="1" source="EwlcQp5Az3rUC2PLK72F-9" target="yP21m4AB17N5dop4f1np-1">
          <mxGeometry relative="1" as="geometry" />
        </mxCell>
        <mxCell id="yP21m4AB17N5dop4f1np-4" value="" style="edgeStyle=orthogonalEdgeStyle;rounded=0;orthogonalLoop=1;jettySize=auto;html=1;" edge="1" parent="1" source="EwlcQp5Az3rUC2PLK72F-9" target="yP21m4AB17N5dop4f1np-3">
          <mxGeometry relative="1" as="geometry" />
        </mxCell>
        <mxCell id="EwlcQp5Az3rUC2PLK72F-9" value="&lt;b&gt;Staff welfare + PPE (Personal Protective equipment)&lt;/b&gt;" style="rounded=1;whiteSpace=wrap;html=1;" parent="1" vertex="1">
          <mxGeometry x="10" y="330" width="120" height="60" as="geometry" />
        </mxCell>
        <mxCell id="yP21m4AB17N5dop4f1np-6" value="" style="edgeStyle=orthogonalEdgeStyle;rounded=0;orthogonalLoop=1;jettySize=auto;html=1;" edge="1" parent="1" source="yP21m4AB17N5dop4f1np-3" target="yP21m4AB17N5dop4f1np-5">
          <mxGeometry relative="1" as="geometry" />
        </mxCell>
        <mxCell id="yP21m4AB17N5dop4f1np-8" value="" style="edgeStyle=orthogonalEdgeStyle;rounded=0;orthogonalLoop=1;jettySize=auto;html=1;" edge="1" parent="1" source="yP21m4AB17N5dop4f1np-3" target="yP21m4AB17N5dop4f1np-7">
          <mxGeometry relative="1" as="geometry" />
        </mxCell>
        <mxCell id="yP21m4AB17N5dop4f1np-3" value="&lt;b&gt;PPE&lt;/b&gt;" style="rounded=1;whiteSpace=wrap;html=1;" vertex="1" parent="1">
          <mxGeometry x="-260" y="330" width="120" height="60" as="geometry" />
        </mxCell>
        <mxCell id="yP21m4AB17N5dop4f1np-10" value="" style="edgeStyle=orthogonalEdgeStyle;rounded=0;orthogonalLoop=1;jettySize=auto;html=1;" edge="1" parent="1" source="yP21m4AB17N5dop4f1np-7" target="yP21m4AB17N5dop4f1np-9">
          <mxGeometry relative="1" as="geometry" />
        </mxCell>
        <mxCell id="yP21m4AB17N5dop4f1np-7" value="&lt;b&gt;Taking OFF &lt;br&gt;PPE&lt;/b&gt;" style="rounded=1;whiteSpace=wrap;html=1;" vertex="1" parent="1">
          <mxGeometry x="-260" y="470" width="120" height="60" as="geometry" />
        </mxCell>
        <mxCell id="yP21m4AB17N5dop4f1np-12" value="" style="edgeStyle=orthogonalEdgeStyle;rounded=0;orthogonalLoop=1;jettySize=auto;html=1;" edge="1" parent="1" source="yP21m4AB17N5dop4f1np-9" target="yP21m4AB17N5dop4f1np-11">
          <mxGeometry relative="1" as="geometry" />
        </mxCell>
        <mxCell id="yP21m4AB17N5dop4f1np-14" value="" style="edgeStyle=orthogonalEdgeStyle;rounded=0;orthogonalLoop=1;jettySize=auto;html=1;" edge="1" parent="1" source="yP21m4AB17N5dop4f1np-9" target="yP21m4AB17N5dop4f1np-13">
          <mxGeometry relative="1" as="geometry" />
        </mxCell>
        <mxCell id="yP21m4AB17N5dop4f1np-9" value="&lt;b&gt;Taking OFF &lt;br&gt;PPE&lt;/b&gt;" style="rounded=1;whiteSpace=wrap;html=1;" vertex="1" parent="1">
          <mxGeometry x="-260" y="650" width="120" height="60" as="geometry" />
        </mxCell>
        <mxCell id="yP21m4AB17N5dop4f1np-13" value="&lt;b&gt;Infographic&lt;/b&gt;" style="rounded=1;whiteSpace=wrap;html=1;" vertex="1" parent="1">
          <mxGeometry x="-500" y="630" width="120" height="60" as="geometry" />
        </mxCell>
        <mxCell id="yP21m4AB17N5dop4f1np-16" value="" style="edgeStyle=orthogonalEdgeStyle;rounded=0;orthogonalLoop=1;jettySize=auto;html=1;" edge="1" parent="1" source="yP21m4AB17N5dop4f1np-11" target="yP21m4AB17N5dop4f1np-15">
          <mxGeometry relative="1" as="geometry">
            <Array as="points">
              <mxPoint x="-200" y="710" />
              <mxPoint x="-430" y="710" />
            </Array>
          </mxGeometry>
        </mxCell>
        <mxCell id="yP21m4AB17N5dop4f1np-11" value="&lt;b&gt;Embedded WH Video PPE OFF&lt;/b&gt;" style="rounded=1;whiteSpace=wrap;html=1;" vertex="1" parent="1">
          <mxGeometry x="-260" y="790" width="120" height="60" as="geometry" />
        </mxCell>
        <mxCell id="yP21m4AB17N5dop4f1np-15" value="&lt;b&gt;Step-by-Step PPE OFF&lt;/b&gt;" style="rounded=1;whiteSpace=wrap;html=1;fillColor=#f8cecc;strokeColor=#b85450;" vertex="1" parent="1">
          <mxGeometry x="-490" y="790" width="120" height="60" as="geometry" />
        </mxCell>
        <mxCell id="yP21m4AB17N5dop4f1np-18" value="" style="edgeStyle=orthogonalEdgeStyle;rounded=0;orthogonalLoop=1;jettySize=auto;html=1;" edge="1" parent="1" source="yP21m4AB17N5dop4f1np-5" target="yP21m4AB17N5dop4f1np-17">
          <mxGeometry relative="1" as="geometry" />
        </mxCell>
        <mxCell id="yP21m4AB17N5dop4f1np-20" value="" style="edgeStyle=orthogonalEdgeStyle;rounded=0;orthogonalLoop=1;jettySize=auto;html=1;" edge="1" parent="1" source="yP21m4AB17N5dop4f1np-5" target="yP21m4AB17N5dop4f1np-19">
          <mxGeometry relative="1" as="geometry" />
        </mxCell>
        <mxCell id="yP21m4AB17N5dop4f1np-22" value="" style="edgeStyle=orthogonalEdgeStyle;rounded=0;orthogonalLoop=1;jettySize=auto;html=1;" edge="1" parent="1" source="yP21m4AB17N5dop4f1np-5" target="yP21m4AB17N5dop4f1np-21">
          <mxGeometry relative="1" as="geometry">
            <Array as="points">
              <mxPoint x="-400" y="380" />
              <mxPoint x="-500" y="380" />
            </Array>
          </mxGeometry>
        </mxCell>
        <mxCell id="yP21m4AB17N5dop4f1np-5" value="&lt;b&gt;Putting ON PPE&lt;/b&gt;" style="rounded=1;whiteSpace=wrap;html=1;" vertex="1" parent="1">
          <mxGeometry x="-460" y="330" width="120" height="60" as="geometry" />
        </mxCell>
        <mxCell id="yP21m4AB17N5dop4f1np-21" value="&lt;b&gt;Step-by-Step PPE ON&lt;/b&gt;" style="rounded=1;whiteSpace=wrap;html=1;fillColor=#f8cecc;strokeColor=#b85450;" vertex="1" parent="1">
          <mxGeometry x="-640" y="470" width="120" height="60" as="geometry" />
        </mxCell>
        <mxCell id="yP21m4AB17N5dop4f1np-19" value="&lt;b&gt;Embedded WH Video PPE ON&lt;/b&gt;" style="rounded=1;whiteSpace=wrap;html=1;" vertex="1" parent="1">
          <mxGeometry x="-460" y="470" width="120" height="60" as="geometry" />
        </mxCell>
        <mxCell id="yP21m4AB17N5dop4f1np-17" value="&lt;b&gt;Infographic&lt;/b&gt;" style="rounded=1;whiteSpace=wrap;html=1;" vertex="1" parent="1">
          <mxGeometry x="-660" y="290" width="120" height="60" as="geometry" />
        </mxCell>
        <mxCell id="yP21m4AB17N5dop4f1np-1" value="&lt;b&gt;Staff welfare&lt;/b&gt;" style="rounded=1;whiteSpace=wrap;html=1;" vertex="1" parent="1">
          <mxGeometry x="10" y="470" width="120" height="60" as="geometry" />
        </mxCell>
        <mxCell id="EwlcQp5Az3rUC2PLK72F-34" value="Phases of pandemic &amp;amp; Recommendations (Carousel)" style="rounded=1;whiteSpace=wrap;html=1;fillColor=#f8cecc;strokeColor=#b85450;" parent="1" vertex="1">
          <mxGeometry x="10" y="650" width="120" height="60" as="geometry" />
        </mxCell>
        <mxCell id="EwlcQp5Az3rUC2PLK72F-32" value="Basic Tips" style="rounded=1;whiteSpace=wrap;html=1;" parent="1" vertex="1">
          <mxGeometry x="-120" y="640" width="120" height="60" as="geometry" />
        </mxCell>
        <mxCell id="EwlcQp5Az3rUC2PLK72F-18" value="&lt;b&gt;&lt;font style=&quot;font-size: 16px&quot;&gt;Home Screen&lt;/font&gt;&lt;/b&gt;" style="rounded=1;whiteSpace=wrap;html=1;" parent="1" vertex="1">
          <mxGeometry x="350" y="190" width="120" height="60" as="geometry" />
        </mxCell>
        <mxCell id="EwlcQp5Az3rUC2PLK72F-22" value="" style="edgeStyle=orthogonalEdgeStyle;rounded=0;orthogonalLoop=1;jettySize=auto;html=1;exitX=1;exitY=0.25;exitDx=0;exitDy=0;" parent="1" source="EwlcQp5Az3rUC2PLK72F-18" target="EwlcQp5Az3rUC2PLK72F-20" edge="1">
          <mxGeometry relative="1" as="geometry">
            <mxPoint x="570" y="100" as="sourcePoint" />
          </mxGeometry>
        </mxCell>
        <mxCell id="EwlcQp5Az3rUC2PLK72F-24" value="" style="edgeStyle=orthogonalEdgeStyle;rounded=0;orthogonalLoop=1;jettySize=auto;html=1;entryX=0;entryY=0.25;entryDx=0;entryDy=0;" parent="1" source="EwlcQp5Az3rUC2PLK72F-20" target="EwlcQp5Az3rUC2PLK72F-25" edge="1">
          <mxGeometry relative="1" as="geometry">
            <mxPoint x="710" y="-50" as="targetPoint" />
            <Array as="points">
              <mxPoint x="720" y="-55" />
            </Array>
          </mxGeometry>
        </mxCell>
        <mxCell id="EwlcQp5Az3rUC2PLK72F-29" value="" style="edgeStyle=orthogonalEdgeStyle;rounded=0;orthogonalLoop=1;jettySize=auto;html=1;" parent="1" source="EwlcQp5Az3rUC2PLK72F-20" target="EwlcQp5Az3rUC2PLK72F-23" edge="1">
          <mxGeometry relative="1" as="geometry" />
        </mxCell>
        <mxCell id="EwlcQp5Az3rUC2PLK72F-20" value="&lt;b&gt;Info/Additional resources&amp;nbsp;&lt;/b&gt;" style="rounded=1;whiteSpace=wrap;html=1;" parent="1" vertex="1">
          <mxGeometry x="650" y="70" width="120" height="60" as="geometry" />
        </mxCell>
        <mxCell id="EwlcQp5Az3rUC2PLK72F-26" value="" style="edgeStyle=orthogonalEdgeStyle;rounded=0;orthogonalLoop=1;jettySize=auto;html=1;" parent="1" source="EwlcQp5Az3rUC2PLK72F-23" target="EwlcQp5Az3rUC2PLK72F-25" edge="1">
          <mxGeometry relative="1" as="geometry" />
        </mxCell>
        <mxCell id="EwlcQp5Az3rUC2PLK72F-28" value="" style="edgeStyle=orthogonalEdgeStyle;rounded=0;orthogonalLoop=1;jettySize=auto;html=1;" parent="1" source="EwlcQp5Az3rUC2PLK72F-23" target="EwlcQp5Az3rUC2PLK72F-27" edge="1">
          <mxGeometry relative="1" as="geometry" />
        </mxCell>
        <mxCell id="EwlcQp5Az3rUC2PLK72F-23" value="WH COVID-19&amp;nbsp;&lt;br&gt;Daily Bulletin" style="rounded=1;whiteSpace=wrap;html=1;" parent="1" vertex="1">
          <mxGeometry x="850" y="70" width="120" height="60" as="geometry" />
        </mxCell>
        <mxCell id="EwlcQp5Az3rUC2PLK72F-31" value="" style="edgeStyle=orthogonalEdgeStyle;rounded=0;orthogonalLoop=1;jettySize=auto;html=1;exitX=0.75;exitY=1;exitDx=0;exitDy=0;" parent="1" source="EwlcQp5Az3rUC2PLK72F-20" target="EwlcQp5Az3rUC2PLK72F-27" edge="1">
          <mxGeometry relative="1" as="geometry">
            <mxPoint x="770" y="240" as="sourcePoint" />
            <Array as="points">
              <mxPoint x="740" y="240" />
            </Array>
          </mxGeometry>
        </mxCell>
        <mxCell id="EwlcQp5Az3rUC2PLK72F-27" value="&amp;nbsp;Society/College Recommendations" style="rounded=1;whiteSpace=wrap;html=1;" parent="1" vertex="1">
          <mxGeometry x="851" y="210" width="120" height="60" as="geometry" />
        </mxCell>
        <mxCell id="EwlcQp5Az3rUC2PLK72F-25" value="Important Contact Numbers" style="rounded=1;whiteSpace=wrap;html=1;" parent="1" vertex="1">
          <mxGeometry x="850" y="-70" width="120" height="60" as="geometry" />
        </mxCell>
      </root>
    </mxGraphModel>
  </diagram>
</mxfile>
